<svg width="15" height="15" viewBox="0 0 15 15" fill="none" xmlns="http://www.w3.org/2000/svg">
<path d="M14.0625 2.5H0.9375C0.420615 2.5 0 2.92062 0 3.4375V11.5625C0 12.0794 0.420615 12.5 0.9375 12.5H14.0625C14.5794 12.5 15 12.0794 15 11.5625V3.4375C15 2.92064 14.5794 2.5 14.0625 2.5ZM14.375 11.5625C14.375 11.735 14.235 11.875 14.0625 11.875H0.9375C0.765 11.875 0.62499 11.735 0.62499 11.5625V3.4375C0.62499 3.265 0.765 3.12499 0.9375 3.12499H14.0625C14.235 3.12499 14.375 3.265 14.375 3.4375V11.5625Z" fill="#FEE600"/>
<path d="M14.7831 2.83938C14.6819 2.69937 14.4856 2.66814 14.3469 2.76939L8.05126 7.32064C7.72125 7.56003 7.27814 7.56064 6.94749 7.32003L0.654376 2.76939C0.514366 2.66814 0.318751 2.6994 0.218116 2.83938C0.117481 2.97939 0.148741 3.17501 0.288106 3.27626L6.58061 7.82628C6.85562 8.02629 7.17747 8.12628 7.49998 8.12628C7.82186 8.12628 8.14372 8.02629 8.41811 7.82628L14.7131 3.27564C14.8525 3.17501 14.8844 2.97939 14.7831 2.83938Z" fill="#FEE600"/>
<path d="M6.91688 7.31612C6.81501 7.17675 6.62063 7.14487 6.48 7.24674L0.296866 11.7349C0.157501 11.8367 0.126241 12.0317 0.227491 12.1718C0.288751 12.2561 0.383732 12.3005 0.480616 12.3005C0.543751 12.3005 0.608116 12.2812 0.664366 12.2411L6.8475 7.75299C6.98687 7.65113 7.01813 7.45613 6.91688 7.31612Z" fill="#FEE600"/>
<path d="M14.7031 11.735L8.52061 7.24692C8.37937 7.14506 8.18499 7.17629 8.08374 7.3163C7.98249 7.45631 8.01375 7.65131 8.15311 7.75317L14.3356 12.2413C14.3906 12.2813 14.455 12.3007 14.5187 12.3007C14.6156 12.3007 14.7112 12.2563 14.7725 12.1719C14.8738 12.0319 14.8425 11.8369 14.7031 11.735Z" fill="#FEE600"/>
</svg>
