<svg width="15" height="15" viewBox="0 0 15 15" fill="none" xmlns="http://www.w3.org/2000/svg">
<path d="M7.49998 7.51904C3.54706 7.51904 0.331017 10.7351 0.331017 14.688C0.331017 14.8601 0.470665 14.9997 0.642721 14.9997C0.814776 14.9997 0.954425 14.8601 0.954425 14.688C0.954425 11.0786 3.89059 8.14242 7.50001 8.14242C11.1094 8.14242 14.0456 11.0786 14.0456 14.688C14.0456 14.8601 14.1852 14.9997 14.3573 14.9997C14.5294 14.9997 14.669 14.8601 14.669 14.688C14.669 10.7345 11.4529 7.51904 7.49998 7.51904Z" fill="#FEE600"/>
<path d="M7.49999 0C5.60986 0 4.07136 1.53789 4.07136 3.42863C4.07136 5.31937 5.60989 6.85726 7.49999 6.85726C9.39009 6.85726 10.9286 5.31937 10.9286 3.42863C10.9286 1.53789 9.39011 0 7.49999 0ZM7.49999 6.23388C5.95336 6.23388 4.69474 4.97526 4.69474 3.42863C4.69474 1.882 5.95336 0.623379 7.49999 0.623379C9.04662 0.623379 10.3052 1.882 10.3052 3.42863C10.3052 4.97526 9.04662 6.23388 7.49999 6.23388Z" fill="#FEE600"/>
</svg>
